<?xml version="1.0" encoding="UTF-8"?>
<svg width="336px" height="86px" viewBox="0 0 336 86" version="1.1" xmlns="http://www.w3.org/2000/svg" xmlns:xlink="http://www.w3.org/1999/xlink">
    <title>Group 17</title>
    <defs>
        <polygon id="path-1" points="0 0 85.7278 0 85.7278 85.7275 0 85.7275"></polygon>
    </defs>
    <g id="Page-1" stroke="none" stroke-width="1" fill="none" fill-rule="evenodd">
        <g id="Show-Support" transform="translate(-170.000000, -258.000000)">
            <g id="Group-17" transform="translate(170.000000, 258.000000)">
                <g id="Group-16">
                    <path d="M308.5196,69.4614 L70.6766,69.4614 C56.8006,69.4614 45.4466,58.1074 45.4466,44.2314 L45.4466,41.4964 C45.4466,27.6194 56.8006,16.2664 70.6766,16.2664 L308.5196,16.2664 C322.3966,16.2664 333.7496,27.6194 333.7496,41.4964 L333.7496,44.2314 C333.7496,58.1074 322.3966,69.4614 308.5196,69.4614" id="Fill-1" fill="#4B3967"></path>
                    <path d="M70.6768,18.1611 C57.8098,18.1611 47.3418,28.6291 47.3418,41.4961 L47.3418,44.2311 C47.3418,57.0991 57.8098,67.5671 70.6768,67.5671 L308.5198,67.5671 C321.3868,67.5671 331.8558,57.0991 331.8558,44.2311 L331.8558,41.4961 C331.8558,28.6291 321.3868,18.1611 308.5198,18.1611 L70.6768,18.1611 Z M308.5198,71.3561 L70.6768,71.3561 C55.7198,71.3561 43.5518,59.1881 43.5518,44.2311 L43.5518,41.4961 C43.5518,26.5391 55.7198,14.3711 70.6768,14.3711 L308.5198,14.3711 C323.4768,14.3711 335.6448,26.5391 335.6448,41.4961 L335.6448,44.2311 C335.6448,59.1881 323.4768,71.3561 308.5198,71.3561 L308.5198,71.3561 Z" id="Fill-3" fill="#EC2C8D"></path>
                    <path d="M83.8328,42.8637 C83.8328,65.4897 65.4908,83.8327 42.8638,83.8327 C20.2378,83.8327 1.8948,65.4897 1.8948,42.8637 C1.8948,20.2377 20.2378,1.8947 42.8638,1.8947 C65.4908,1.8947 83.8328,20.2377 83.8328,42.8637" id="Fill-5" fill="#CDC2D9"></path>
                    <g id="Group-9">
                        <mask id="mask-2" fill="white">
                            <use xlink:href="#path-1"></use>
                        </mask>
                        <g id="Clip-8"></g>
                        <path d="M42.8638,3.79 C21.3188,3.79 3.7898,21.319 3.7898,42.864 C3.7898,64.409 21.3188,81.938 42.8638,81.938 C64.4088,81.938 81.9378,64.409 81.9378,42.864 C81.9378,21.319 64.4088,3.79 42.8638,3.79 M42.8638,85.728 C19.2288,85.728 -0.0002,66.499 -0.0002,42.864 C-0.0002,19.229 19.2288,0 42.8638,0 C66.4988,0 85.7278,19.229 85.7278,42.864 C85.7278,66.499 66.4988,85.728 42.8638,85.728" id="Fill-7" fill="#EC2C8D" mask="url(#mask-2)"></path>
                    </g>
                    <path d="M61.3042,26.5134 L61.3042,26.5114 C61.3482,26.5114 61.3922,26.5124 61.4362,26.5114 C61.9832,26.5104 62.5292,26.5094 63.0762,26.5084 C63.1202,26.5074 63.1642,26.5034 63.2072,26.4964 C63.2542,26.4894 63.2862,26.4044 63.2572,26.3674 C63.2402,26.3464 63.2242,26.3254 63.2052,26.3074 C63.0922,26.1964 62.9782,26.0854 62.8652,25.9744 C62.5842,25.6954 62.3032,25.4154 62.0212,25.1364 C61.7642,24.8824 61.5002,24.6354 61.2492,24.3754 C60.8272,23.9374 60.3872,23.5184 59.9572,23.0894 C59.9072,23.0394 59.8512,22.9954 59.7972,22.9504 C59.7742,22.9314 59.7242,22.9344 59.6992,22.9554 C59.6712,22.9774 59.6442,22.9994 59.6192,23.0244 C59.4612,23.1784 59.3042,23.3324 59.1482,23.4874 C58.6232,24.0094 58.0992,24.5324 57.5752,25.0534 C56.9122,25.7114 56.2492,26.3694 55.5862,27.0274 C55.5742,27.0394 55.5612,27.0524 55.5502,27.0654 C55.5102,27.1094 55.5132,27.1924 55.5592,27.2334 C55.5922,27.2624 55.6292,27.2864 55.6672,27.3064 C56.2062,27.5864 56.7452,27.8644 57.2842,28.1444 C57.5732,28.2944 57.8612,28.4474 58.1502,28.5964 C58.1802,28.6124 58.2162,28.6194 58.2502,28.6274 C58.3032,28.6394 58.3612,28.6134 58.3872,28.5684 C58.4222,28.5074 58.4582,28.4464 58.4882,28.3834 C58.7182,27.9084 58.9432,27.4314 59.1462,26.9444 C59.1872,26.8464 59.2252,26.7484 59.2712,26.6534 C59.3122,26.5694 59.3782,26.5144 59.4782,26.5144 C59.5492,26.5154 59.6192,26.5134 59.6902,26.5134 C60.2282,26.5134 60.7662,26.5134 61.3042,26.5134 L61.3042,26.5134 Z M36.5672,35.5964 C36.5972,35.8574 36.6042,36.1134 36.6722,36.3624 C36.6952,36.4464 36.6982,36.5364 36.7042,36.6244 C36.7142,36.7744 36.7322,36.9234 36.7712,37.0684 C36.8002,37.1714 36.8152,37.2744 36.8182,37.3814 C36.8222,37.5404 36.8452,37.6974 36.8862,37.8514 C36.9142,37.9534 36.9232,38.0584 36.9352,38.1634 C36.9552,38.3384 36.9842,38.5124 37.0102,38.6864 C37.0212,38.7654 37.0342,38.8434 37.0452,38.9214 C37.0692,39.1054 37.0722,39.2914 37.1192,39.4714 C37.1552,39.6084 37.1742,39.7474 37.1822,39.8894 C37.1892,40.0214 37.2042,40.1524 37.2432,40.2804 C37.2742,40.3824 37.2812,40.4874 37.2922,40.5924 C37.3072,40.7504 37.3242,40.9084 37.3542,41.0644 C37.3812,41.2024 37.4022,41.3414 37.4152,41.4824 C37.4252,41.6044 37.4412,41.7274 37.4672,41.8484 C37.5042,42.0214 37.5322,42.1944 37.5422,42.3704 C37.5502,42.5124 37.5732,42.6514 37.6142,42.7864 C37.6242,42.8204 37.6412,42.8514 37.6572,42.8824 C37.6742,42.9144 37.7482,42.9294 37.7752,42.9064 C37.8082,42.8774 37.8412,42.8474 37.8722,42.8164 C38.1742,42.5204 38.4762,42.2244 38.7762,41.9254 C39.3892,41.3164 40.0002,40.7054 40.6122,40.0964 C41.0492,39.6604 41.4872,39.2264 41.9252,38.7914 C41.9812,38.7354 42.0372,38.6784 42.0882,38.6184 C42.1632,38.5294 42.1462,38.4594 42.0462,38.4084 C41.9842,38.3764 41.9262,38.3364 41.8622,38.3074 C41.5812,38.1814 41.3092,38.0364 41.0342,37.8974 C40.5392,37.6474 40.0472,37.3914 39.5632,37.1204 C39.2712,36.9564 38.9822,36.7894 38.6892,36.6284 C38.2722,36.3994 37.8602,36.1624 37.4512,35.9194 C37.2242,35.7844 36.9952,35.6524 36.7662,35.5204 C36.7362,35.5034 36.7032,35.4914 36.6702,35.4794 C36.6472,35.4704 36.5912,35.5024 36.5832,35.5274 C36.5762,35.5524 36.5712,35.5784 36.5672,35.5964 L36.5672,35.5964 Z M50.8522,34.4634 C51.0382,34.4514 51.2232,34.4644 51.4062,34.4244 C51.4402,34.4164 51.4762,34.4164 51.5112,34.4184 C51.8522,34.4384 52.1692,34.3054 52.5012,34.2674 C52.5272,34.2644 52.5512,34.2514 52.5762,34.2434 C52.6602,34.2164 52.7442,34.1904 52.8282,34.1644 C52.8622,34.1544 52.8982,34.1494 52.9302,34.1364 C53.2902,33.9944 53.6502,33.8554 53.9902,33.6674 C54.2832,33.5044 54.5722,33.3364 54.8362,33.1294 C54.9472,33.0424 55.0582,32.9554 55.1652,32.8644 C55.4202,32.6474 55.6692,32.4244 55.9032,32.1844 C56.1312,31.9504 56.3392,31.6994 56.5532,31.4544 C56.7342,31.2484 56.8882,31.0234 57.0502,30.8044 C57.2232,30.5714 57.3772,30.3244 57.5372,30.0824 C57.5762,30.0244 57.6092,29.9614 57.6432,29.8994 C57.6692,29.8524 57.6512,29.7934 57.6002,29.7644 C57.4622,29.6854 57.3262,29.6044 57.1852,29.5324 C56.7852,29.3294 56.3832,29.1314 55.9822,28.9284 C55.7782,28.8254 55.5772,28.7164 55.3752,28.6104 C55.1572,28.4954 54.9402,28.3794 54.7212,28.2664 C54.6672,28.2384 54.6082,28.2164 54.5492,28.2014 C54.4772,28.1844 54.4092,28.1984 54.3542,28.2534 C54.3292,28.2794 54.3052,28.3044 54.2802,28.3294 C54.0442,28.5674 53.8102,28.8054 53.5722,29.0414 C53.1902,29.4194 52.8052,29.7944 52.4242,30.1724 C52.1982,30.3954 51.9772,30.6234 51.7522,30.8464 C51.3072,31.2864 50.8592,31.7234 50.4152,32.1634 C50.0592,32.5174 49.7072,32.8764 49.3512,33.2314 C49.1332,33.4494 48.9122,33.6634 48.6922,33.8794 C48.6612,33.9104 48.6322,33.9434 48.6072,33.9794 C48.5612,34.0434 48.5912,34.1334 48.6632,34.1504 C48.7492,34.1704 48.8392,34.1764 48.9212,34.2064 C49.0712,34.2634 49.2252,34.2944 49.3842,34.3054 C49.4192,34.3084 49.4552,34.3144 49.4882,34.3254 C49.6832,34.3894 49.8852,34.4014 50.0882,34.4144 C50.3432,34.4294 50.5972,34.4474 50.8522,34.4634 L50.8522,34.4634 Z M50.9892,39.8794 C51.2092,39.8914 51.4292,39.9114 51.6502,39.8914 C51.8342,39.8754 52.0192,39.8654 52.2042,39.8574 C52.3552,39.8504 52.5022,39.8314 52.6462,39.7844 C52.7052,39.7664 52.7652,39.7474 52.8262,39.7424 C53.0312,39.7254 53.2192,39.6454 53.4082,39.5764 C53.6472,39.4904 53.8822,39.3894 54.1062,39.2654 C54.3222,39.1454 54.5372,39.0244 54.7392,38.8824 C54.9832,38.7084 55.2122,38.5134 55.4272,38.3064 C55.8092,37.9384 56.1382,37.5254 56.4142,37.0714 C56.5832,36.7924 56.7352,36.5044 56.8732,36.2094 C56.9182,36.1134 56.9542,36.0144 56.9982,35.9184 C57.0542,35.7994 57.0992,35.6754 57.1452,35.5514 C57.2182,35.3544 57.2932,35.1574 57.3512,34.9544 C57.4002,34.7854 57.4672,34.6214 57.4872,34.4454 C57.4882,34.4364 57.4922,34.4284 57.4962,34.4204 C57.5492,34.3164 57.5672,34.2034 57.5832,34.0894 C57.5932,34.0204 57.6162,33.9534 57.6322,33.8844 C57.6542,33.7814 57.6762,33.6774 57.6972,33.5744 C57.7072,33.5224 57.7102,33.4684 57.7242,33.4184 C57.7762,33.2394 57.8002,33.0564 57.8222,32.8724 C57.8352,32.7584 57.8602,32.6464 57.8762,32.5334 C57.8982,32.3854 57.9192,32.2374 57.9352,32.0884 C57.9392,32.0464 57.9232,32.0024 57.9122,31.9614 C57.9052,31.9334 57.8422,31.9164 57.8222,31.9354 C57.7982,31.9594 57.7732,31.9834 57.7512,32.0104 C57.6112,32.1804 57.4732,32.3534 57.3312,32.5214 C57.2582,32.6084 57.1702,32.6854 57.0992,32.7744 C56.8962,33.0314 56.6602,33.2544 56.4192,33.4744 C56.1382,33.7304 55.8472,33.9714 55.5412,34.1954 C55.0572,34.5504 54.5382,34.8464 53.9952,35.1024 C53.8672,35.1624 53.7332,35.2064 53.6012,35.2554 C53.3962,35.3324 53.1992,35.4354 52.9752,35.4524 C52.9492,35.4544 52.9222,35.4624 52.9002,35.4754 C52.7902,35.5414 52.6692,35.5544 52.5452,35.5664 C52.4492,35.5754 52.3552,35.6004 52.2602,35.6204 C52.1482,35.6444 52.0372,35.6714 51.9222,35.6774 C51.7632,35.6854 51.6052,35.7044 51.4472,35.7134 C51.1922,35.7274 50.9362,35.7364 50.6812,35.7454 C50.6372,35.7474 50.5932,35.7414 50.5492,35.7374 C50.3292,35.7194 50.1092,35.7004 49.8902,35.6834 C49.7402,35.6724 49.5922,35.6554 49.4442,35.6264 C49.1762,35.5734 48.9072,35.5334 48.6402,35.4694 C48.3832,35.4084 48.1292,35.3374 47.8772,35.2584 C47.7602,35.2214 47.6392,35.1944 47.5192,35.1664 C47.4662,35.1534 47.4142,35.1674 47.3712,35.2034 C47.3442,35.2264 47.3172,35.2494 47.2922,35.2734 C47.1532,35.4094 47.0152,35.5464 46.8782,35.6824 C46.1592,36.3974 45.4402,37.1114 44.7212,37.8264 C44.6712,37.8764 44.6222,37.9264 44.5762,37.9804 C44.5202,38.0454 44.5472,38.1444 44.6272,38.1764 C44.8972,38.2834 45.1652,38.3964 45.4372,38.4954 C45.6112,38.5584 45.7752,38.6444 45.9522,38.6994 C46.1792,38.7714 46.3982,38.8624 46.6242,38.9364 C46.7492,38.9784 46.8782,39.0114 46.9992,39.0644 C47.0882,39.1034 47.1812,39.1274 47.2732,39.1554 C47.4332,39.2034 47.5872,39.2714 47.7542,39.2914 C47.7792,39.2944 47.8032,39.3134 47.8282,39.3214 C47.8952,39.3424 47.9622,39.3624 48.0292,39.3814 C48.0882,39.3984 48.1502,39.4094 48.2072,39.4324 C48.3062,39.4734 48.4072,39.4974 48.5132,39.5114 C48.5652,39.5184 48.6182,39.5264 48.6682,39.5434 C48.9042,39.6194 49.1522,39.6364 49.3892,39.7094 C49.4632,39.7324 49.5442,39.7404 49.6232,39.7444 C49.7472,39.7504 49.8692,39.7674 49.9892,39.7984 C50.1002,39.8284 50.2142,39.8434 50.3292,39.8484 C50.5492,39.8594 50.7692,39.8694 50.9892,39.8794 L50.9892,39.8794 Z M35.1012,22.6174 L35.1012,22.6154 C32.4112,22.6154 29.7212,22.6154 27.0312,22.6164 C26.8642,22.6164 26.6962,22.6254 26.5292,22.6344 C26.5082,22.6354 26.4832,22.6564 26.4682,22.6754 C26.4482,22.6984 26.4622,22.7514 26.4862,22.7704 C26.5002,22.7814 26.5132,22.7944 26.5282,22.8024 C27.0932,23.1264 27.6592,23.4484 28.2232,23.7734 C28.7572,24.0804 29.2992,24.3734 29.8272,24.6924 C29.9172,24.7464 30.0122,24.7924 30.1052,24.8424 C30.4062,25.0064 30.7102,25.1664 31.0082,25.3364 C31.1982,25.4454 31.3902,25.5534 31.5802,25.6614 C31.8322,25.8054 32.0882,25.9424 32.3422,26.0844 C32.7182,26.2944 33.0932,26.5064 33.4692,26.7174 C33.6072,26.7944 33.7432,26.8774 33.8862,26.9454 C34.1482,27.0704 34.4012,27.2124 34.6542,27.3534 C35.0612,27.5824 35.4752,27.7954 35.8842,28.0204 C36.1692,28.1774 36.4632,28.3184 36.7442,28.4834 C36.8882,28.5684 37.0332,28.6524 37.1822,28.7264 C37.6082,28.9374 38.0262,29.1624 38.4482,29.3794 C39.0192,29.6734 39.5872,29.9754 40.1592,30.2664 C40.6542,30.5184 41.1452,30.7784 41.6452,31.0194 C42.2162,31.2934 42.7842,31.5764 43.3532,31.8544 C43.6702,32.0094 43.9872,32.1614 44.3052,32.3134 C44.6152,32.4614 44.9262,32.6054 45.2362,32.7524 C45.3872,32.8244 45.5332,32.9084 45.6862,32.9744 C46.0262,33.1194 46.3612,33.2764 46.6962,33.4304 C46.7922,33.4744 46.8892,33.5174 46.9862,33.5584 C47.0752,33.5964 47.1592,33.5814 47.2322,33.5184 C47.2792,33.4774 47.3232,33.4344 47.3662,33.3904 C47.5772,33.1774 47.7862,32.9634 47.9992,32.7514 C48.3292,32.4224 48.6632,32.0944 48.9942,31.7664 C49.5332,31.2324 50.0712,30.6994 50.6092,30.1654 C50.7782,29.9974 50.9442,29.8284 51.1142,29.6614 C51.4642,29.3144 51.8172,28.9684 52.1672,28.6214 C52.4802,28.3114 52.7912,28.0004 53.1032,27.6884 C53.1212,27.6704 53.1392,27.6504 53.1562,27.6294 C53.1962,27.5804 53.1782,27.4694 53.1172,27.4434 C53.0122,27.3974 52.9172,27.3324 52.8162,27.2814 C52.4242,27.0814 52.0232,26.8984 51.6382,26.6854 C51.4302,26.5714 51.2112,26.4794 51.0062,26.3564 C50.8482,26.2624 50.6802,26.1834 50.5162,26.0994 C50.0932,25.8824 49.6682,25.6694 49.2462,25.4514 C48.9172,25.2814 48.5952,25.0994 48.2632,24.9384 C47.7722,24.6994 47.2912,24.4434 46.8072,24.1924 C46.4702,24.0174 46.1312,23.8484 45.7972,23.6704 C45.4712,23.4974 45.1412,23.3324 44.8142,23.1604 C44.5102,23.0014 44.2002,22.8554 43.9022,22.6854 C43.8652,22.6644 43.8202,22.6514 43.7782,22.6454 C43.6902,22.6334 43.6022,22.6254 43.5142,22.6234 C43.3382,22.6184 43.1612,22.6174 42.9852,22.6174 C40.3572,22.6164 37.7292,22.6174 35.1012,22.6174 L35.1012,22.6174 Z M32.8582,21.3354 L43.7102,21.3354 C43.9562,21.3104 44.1772,21.3784 44.3922,21.4974 C44.8322,21.7404 45.2882,21.9504 45.7262,22.1964 C45.9812,22.2974 46.2132,22.4414 46.4542,22.5674 C46.6882,22.6904 46.9272,22.8044 47.1602,22.9284 C47.5172,23.1194 47.8792,23.2994 48.2382,23.4864 C48.6522,23.7014 49.0682,23.9124 49.4832,24.1234 C49.7352,24.2514 49.9822,24.3854 50.2322,24.5154 C50.4432,24.6254 50.6552,24.7334 50.8662,24.8414 C51.2112,25.0184 51.5562,25.1944 51.9012,25.3704 C52.2462,25.5464 52.5942,25.7174 52.9362,25.8994 C53.2932,26.0884 53.6632,26.2544 54.0082,26.4664 C54.0312,26.4794 54.0552,26.4904 54.0802,26.5004 C54.1692,26.5364 54.2562,26.5254 54.3272,26.4624 C54.4132,26.3864 54.4932,26.3044 54.5742,26.2234 C54.9912,25.8054 55.4012,25.3804 55.8272,24.9724 C56.3872,24.4354 56.9262,23.8784 57.4762,23.3314 C57.7322,23.0764 57.9922,22.8254 58.2492,22.5714 C58.5362,22.2864 58.8232,21.9994 59.1092,21.7124 C59.2772,21.5434 59.4442,21.3734 59.6122,21.2054 C59.6302,21.1864 59.6532,21.1724 59.6752,21.1584 C59.7242,21.1264 59.7772,21.1234 59.8242,21.1564 C59.8742,21.1914 59.9212,21.2314 59.9652,21.2744 C60.1602,21.4664 60.3522,21.6594 60.5462,21.8524 C61.1772,22.4804 61.8082,23.1084 62.4392,23.7354 C63.1202,24.4134 63.8002,25.0914 64.4812,25.7694 C65.0882,26.3724 65.6942,26.9744 66.3012,27.5774 C66.3262,27.6024 66.3532,27.6264 66.3722,27.6554 C66.3852,27.6764 66.3962,27.7074 66.3892,27.7284 C66.3832,27.7484 66.3552,27.7724 66.3342,27.7764 C66.2732,27.7854 66.2112,27.7874 66.1502,27.7874 C65.7972,27.7894 65.4442,27.7884 65.0912,27.7884 C63.5742,27.7874 62.0562,27.7864 60.5392,27.7864 C60.4602,27.7864 60.3802,27.7894 60.3012,27.7964 C60.2472,27.8004 60.1972,27.8254 60.1692,27.8734 C60.1192,27.9564 60.0682,28.0394 60.0282,28.1264 C59.8952,28.4234 59.7622,28.7204 59.6142,29.0094 C59.6062,29.0254 59.5942,29.0394 59.5872,29.0554 C59.3542,29.5454 59.3712,29.4054 59.3492,29.9334 C59.3372,30.2414 59.3232,30.5504 59.3182,30.8584 C59.3142,31.1854 59.2832,31.5094 59.2412,31.8334 C59.2242,31.9644 59.2082,32.0954 59.2022,32.2274 C59.1942,32.4044 59.1682,32.5784 59.1382,32.7524 C59.1122,32.8994 59.0962,33.0484 59.0752,33.1964 C59.0672,33.2494 59.0662,33.3034 59.0512,33.3534 C59.0022,33.5144 58.9732,33.6794 58.9572,33.8454 C58.9442,33.9794 58.8792,34.0984 58.8562,34.2284 C58.8322,34.3584 58.8282,34.4914 58.7742,34.6154 C58.7532,34.6634 58.7412,34.7164 58.7332,34.7684 C58.7182,34.8644 58.6952,34.9574 58.6582,35.0484 C58.6382,35.0964 58.6252,35.1484 58.6162,35.2004 C58.6002,35.2874 58.5782,35.3724 58.5412,35.4534 C58.5192,35.5004 58.5062,35.5524 58.4912,35.6034 C58.4812,35.6364 58.4772,35.6734 58.4632,35.7054 C58.3212,36.0264 58.2102,36.3604 58.0662,36.6824 C57.9332,36.9794 57.7802,37.2664 57.6262,37.5524 C57.5192,37.7534 57.3792,37.9374 57.2542,38.1294 C57.0902,38.3814 56.8882,38.6034 56.7062,38.8414 C56.6682,38.8894 56.6232,38.9324 56.5792,38.9754 C56.4732,39.0814 56.3652,39.1864 56.2602,39.2924 C55.9982,39.5564 55.7122,39.7894 55.3982,39.9884 C55.3092,40.0444 55.2212,40.1034 55.1322,40.1614 C54.9332,40.2914 54.7162,40.3914 54.5052,40.5004 C54.2312,40.6424 53.9352,40.7344 53.6502,40.8514 C53.5212,40.9044 53.3772,40.9194 53.2492,40.9804 C53.0182,40.9924 52.8022,41.0824 52.5752,41.1074 C52.3912,41.1274 52.2052,41.1354 52.0212,41.1534 C51.5012,41.2034 50.9812,41.1824 50.4622,41.1364 C50.4092,41.1314 50.3572,41.1224 50.3042,41.1214 C50.0662,41.1124 49.8282,41.0984 49.5982,41.0284 C49.5562,41.0154 49.5112,41.0114 49.4672,41.0094 C49.3082,41.0004 49.1522,40.9774 49.0002,40.9274 C48.9412,40.9084 48.8792,40.8974 48.8182,40.8914 C48.6862,40.8774 48.5562,40.8634 48.4332,40.8044 C48.4022,40.7894 48.3652,40.7874 48.3312,40.7814 C48.1842,40.7524 48.0352,40.7314 47.8972,40.6694 C47.8652,40.6554 47.8292,40.6484 47.7942,40.6444 C47.7062,40.6354 47.6212,40.6154 47.5402,40.5764 C47.5012,40.5574 47.4572,40.5444 47.4142,40.5374 C47.3182,40.5234 47.2252,40.5004 47.1362,40.4574 C47.0972,40.4384 47.0522,40.4334 47.0102,40.4204 C46.9342,40.3984 46.8582,40.3744 46.7822,40.3524 C46.5802,40.2924 46.3882,40.1994 46.1812,40.1524 C46.0242,40.0724 45.8472,40.0464 45.6852,39.9754 C45.4672,39.8804 45.2432,39.7984 45.0172,39.7254 C44.8572,39.6744 44.7122,39.5914 44.5522,39.5384 C44.3862,39.4844 44.2262,39.4074 44.0662,39.3374 C43.9222,39.2734 43.7732,39.2174 43.6362,39.1374 C43.5432,39.0824 43.4462,39.0974 43.3672,39.1704 C43.2712,39.2604 43.1762,39.3534 43.0872,39.4504 C42.8782,39.6784 42.6452,39.8814 42.4262,40.0984 C42.0202,40.5024 41.6102,40.9024 41.2092,41.3124 C40.9382,41.5894 40.6602,41.8594 40.3852,42.1324 C39.9842,42.5294 39.5872,42.9304 39.1872,43.3284 C38.8692,43.6454 38.5502,43.9624 38.2322,44.2794 C37.8072,44.7014 37.3822,45.1244 36.9572,45.5464 C36.9452,45.5594 36.9352,45.5744 36.9212,45.5844 C36.8732,45.6174 36.8442,45.6974 36.7712,45.6664 C36.7152,45.6434 36.7302,45.5754 36.7202,45.5254 C36.7022,45.4384 36.6892,45.3514 36.6692,45.2654 C36.6432,45.1534 36.6302,45.0404 36.6202,44.9264 C36.6082,44.7864 36.5892,44.6454 36.5612,44.5074 C36.5352,44.3774 36.5162,44.2484 36.5032,44.1164 C36.4882,43.9674 36.4672,43.8184 36.4372,43.6724 C36.4122,43.5504 36.3952,43.4294 36.3852,43.3064 C36.3762,43.1924 36.3652,43.0774 36.3402,42.9654 C36.3042,42.8014 36.2792,42.6364 36.2642,42.4694 C36.2512,42.3204 36.2252,42.1734 36.1972,42.0254 C36.1702,41.8874 36.1572,41.7464 36.1392,41.6074 C36.1262,41.5104 36.1282,41.4114 36.1032,41.3184 C36.0552,41.1384 36.0342,40.9564 36.0212,40.7714 C36.0132,40.6664 35.9942,40.5604 35.9702,40.4584 C35.9412,40.3374 35.9252,40.2164 35.9142,40.0934 C35.9042,39.9704 35.8912,39.8464 35.8652,39.7264 C35.8302,39.5624 35.8052,39.3974 35.7922,39.2294 C35.7782,39.0444 35.7352,38.8644 35.7012,38.6824 C35.6662,38.5014 35.6672,38.3134 35.6332,38.1324 C35.5952,37.9334 35.5542,37.7354 35.5472,37.5314 C35.5462,37.4964 35.5422,37.4604 35.5342,37.4264 C35.4742,37.1774 35.4432,36.9244 35.4222,36.6694 C35.4192,36.6254 35.4152,36.5804 35.4032,36.5394 C35.3442,36.3434 35.3302,36.1404 35.3122,35.9384 C35.2992,35.7984 35.2812,35.6594 35.2412,35.5224 C35.2172,35.4394 35.2142,35.3494 35.2042,35.2614 C35.1932,35.1654 35.1942,35.0664 35.1732,34.9724 C35.1192,34.7224 35.0852,34.4694 35.0632,34.2144 C35.0562,34.1364 35.0412,34.0574 35.0232,33.9804 C34.9942,33.8594 34.9792,33.7384 34.9692,33.6144 C34.9542,33.4304 34.9252,33.2474 34.8762,33.0684 C34.8642,33.0274 34.8672,32.9814 34.8652,32.9384 C34.8652,32.9184 34.9072,32.8874 34.9232,32.8934 C34.9472,32.9034 34.9742,32.9094 34.9952,32.9244 C35.4222,33.2054 35.8652,33.4604 36.2982,33.7304 C36.7322,34.0004 37.1712,34.2604 37.6102,34.5224 C37.9722,34.7394 38.3392,34.9484 38.7002,35.1664 C38.9562,35.3214 39.2152,35.4714 39.4852,35.6024 C39.6512,35.6824 39.8072,35.7824 39.9692,35.8714 C40.3932,36.1054 40.8162,36.3414 41.2482,36.5604 C41.6732,36.7744 42.0942,36.9954 42.5172,37.2134 C42.5872,37.2494 42.6632,37.2754 42.7322,37.3124 C42.8412,37.3704 42.9582,37.4104 43.0622,37.4784 C43.1332,37.5244 43.2192,37.5094 43.2822,37.4474 C43.4142,37.3174 43.5412,37.1834 43.6722,37.0524 C44.2862,36.4444 44.9002,35.8364 45.5142,35.2284 C45.6702,35.0734 45.8252,34.9164 45.9812,34.7594 C45.9992,34.7414 46.0172,34.7214 46.0322,34.6994 C46.0922,34.6154 46.0562,34.5384 45.9792,34.5054 C45.7952,34.4234 45.6092,34.3414 45.4272,34.2544 C45.2052,34.1484 44.9762,34.0574 44.7552,33.9484 C44.4242,33.7844 44.0902,33.6244 43.7522,33.4734 C43.3022,33.2724 42.8582,33.0564 42.4182,32.8364 C41.9302,32.5924 41.4382,32.3554 40.9502,32.1104 C40.3602,31.8144 39.7772,31.5054 39.1862,31.2114 C38.6502,30.9444 38.1242,30.6584 37.5942,30.3794 C37.3382,30.2434 37.0762,30.1164 36.8202,29.9794 C36.5332,29.8254 36.2442,29.6754 35.9572,29.5204 C35.8022,29.4374 35.6412,29.3654 35.4902,29.2774 C35.2682,29.1494 35.0382,29.0394 34.8142,28.9164 C34.5592,28.7774 34.3082,28.6304 34.0512,28.4954 C33.7252,28.3224 33.4042,28.1394 33.0792,27.9634 C32.7542,27.7874 32.4322,27.6044 32.1082,27.4264 C31.7772,27.2434 31.4482,27.0564 31.1122,26.8814 C30.8312,26.7354 30.5692,26.5544 30.2792,26.4244 C29.8102,26.1274 29.3152,25.8764 28.8342,25.6004 C28.4752,25.3944 28.1172,25.1874 27.7572,24.9824 C27.4592,24.8114 27.1592,24.6444 26.8612,24.4734 C26.4402,24.2334 26.0202,23.9934 25.6012,23.7514 C25.1352,23.4824 24.6712,23.2124 24.2072,22.9424 C23.6822,22.6374 23.1582,22.3314 22.6332,22.0264 C22.3132,21.8414 21.9912,21.6574 21.6712,21.4724 C21.6562,21.4634 21.6462,21.4484 21.6332,21.4364 C21.6202,21.4234 21.6252,21.3704 21.6412,21.3644 C21.6582,21.3574 21.6742,21.3474 21.6902,21.3454 C21.7782,21.3384 21.8662,21.3294 21.9542,21.3294 C22.4832,21.3294 23.0132,21.3334 23.5422,21.3334 C26.6472,21.3344 29.7532,21.3344 32.8582,21.3344 L32.8582,21.3354 Z" id="Fill-10" fill="#4B3767"></path>
                    <path d="M66.7421,49.4431 C66.7421,49.4431 62.2471,45.3041 61.0481,43.4281 C60.3861,42.3921 59.2841,39.9001 62.0911,38.4561 C64.8981,37.0131 66.6811,39.6311 66.7611,39.8721 L67.0631,39.9001 C67.0631,39.9001 68.4261,37.8951 70.2711,38.1361 C72.1151,38.3761 74.4411,40.1401 72.9171,42.7871 C71.3931,45.4331 66.7421,49.4431 66.7421,49.4431" id="Fill-12" fill="#DA453F"></path>
                    <path d="M16.7658,56.0315 C16.7658,58.8245 16.7768,61.6185 16.7548,64.4115 C16.7508,64.8615 16.8888,64.9585 17.3108,64.9515 C18.8828,64.9285 20.4558,64.9435 22.0278,64.9415 C23.0328,64.9405 23.4338,64.5395 23.4348,63.5245 C23.4358,58.5485 23.4358,53.5725 23.4338,48.5965 C23.4338,47.5885 23.0258,47.1735 22.0248,47.1705 C20.4528,47.1645 18.8798,47.1845 17.3078,47.1585 C16.8738,47.1515 16.7518,47.2675 16.7558,47.7075 C16.7758,50.4815 16.7658,53.2565 16.7658,56.0315 L16.7658,56.0315 Z M24.9588,55.8425 C24.9588,57.8605 24.9638,59.8785 24.9538,61.8965 C24.9528,62.2045 24.9898,62.3555 25.3648,62.4055 C27.1908,62.6485 28.8648,63.2945 30.4208,64.2985 C31.8718,65.2345 33.3718,66.0945 34.8598,66.9715 C38.3848,69.0505 42.0428,69.3455 45.8108,67.7005 C50.9828,65.4435 56.1438,63.1585 61.3098,60.8865 C62.9058,60.1835 64.5048,59.4895 66.0968,58.7785 C66.9058,58.4165 67.3808,57.6625 67.3438,56.8615 C67.3038,55.9955 66.8148,55.3095 66.0308,55.0655 C65.4798,54.8925 64.9318,54.9555 64.3898,55.1435 C62.6418,55.7515 60.8918,56.3515 59.1428,56.9535 C56.6288,57.8185 54.0978,58.6355 51.6098,59.5685 C50.5698,59.9585 49.5458,60.1125 48.4528,60.1045 C45.2458,60.0815 42.0388,60.0965 38.8318,60.0965 C37.8428,60.0955 37.3288,59.7405 37.3098,59.0435 C37.2908,58.3345 37.8428,57.9325 38.8378,57.9325 C42.3338,57.9325 45.8288,57.9385 49.3238,57.9295 C50.8768,57.9255 51.9138,56.5165 51.4378,55.0855 C51.1368,54.1765 50.3088,53.6155 49.2128,53.6105 C47.0328,53.6025 44.8528,53.5925 42.6728,53.6165 C41.8888,53.6245 41.1868,53.4345 40.5138,53.0505 C38.7788,52.0625 37.0288,51.0985 35.2978,50.1045 C34.3358,49.5515 33.3098,49.2835 32.2078,49.2825 C29.9558,49.2825 27.7038,49.2945 25.4518,49.2724082 C25.0348,49.2685 24.9458,49.3945 24.9496732,49.7885 C24.9698,51.8065 24.9588,53.8245 24.9588,55.8425 L24.9588,55.8425 Z M14.9828,46.3125 C15.2748,45.7555 15.7298,45.5615 16.3588,45.5705 C18.3348,45.5995 20.3118,45.5745 22.2888,45.5845 C23.5738,45.5905 24.5378,46.1755 25.1318,47.3085 C25.2878,47.6065 25.4488,47.6895 25.7648,47.6875 C28.0568,47.6745 30.3488,47.6885 32.6398,47.6785 C33.9818,47.6725 35.2318,47.9985 36.3988,48.6505 C38.1358,49.6225 39.8728,50.5955 41.6028,51.5805 C41.9638,51.7865 42.3248,51.8895 42.7438,51.8865 C44.8078,51.8735 46.8738,51.9315 48.9358,51.8675 C51.6088,51.7855 53.5968,53.9745 53.4038,56.3905 C53.3948,56.5075 53.4028,56.6255 53.4028,56.7985 C55.0018,56.2485 56.5498,55.7155 58.0978,55.1835 C59.8298,54.5885 61.5568,53.9765 63.2958,53.4045 C65.8098,52.5765 68.1478,53.9245 68.6768,56.4805 C69.0438,58.2535 68.0818,60.1235 66.3348,60.9035 C62.6228,62.5605 58.8968,64.1875 55.1768,65.8265 C52.3348,67.0795 49.4988,68.3465 46.6478,69.5785 C42.2608,71.4765 38.0108,71.1565 33.9118,68.7195 C32.3048,67.7645 30.6938,66.8155 29.1068,65.8295 C28.0128,65.1505 26.8138,64.8255 25.5688,64.6065 C25.3568,64.5695 25.2588,64.6355 25.1618,64.8175 C24.4948,66.0725 23.4408,66.6145 22.0268,66.5885 C20.1728,66.5535 18.3178,66.5565 16.4638,66.5925 C15.8388,66.6045 15.3458,66.4605 14.9828,65.9455 L14.9828,46.3125 Z" id="Fill-14" fill="#4B3967"></path>
                </g>
                <text id="Show-Support" font-family="FiraSans-Regular, Fira Sans" font-size="28" font-weight="normal" fill="#F1F1F2">
                    <tspan x="116.6414" y="52.2300854">Show Support</tspan>
                </text>
            </g>
        </g>
    </g>
</svg>